<?xml version="1.0" encoding="utf-8"?>
<!-- Generator: Adobe Illustrator 24.0.3, SVG Export Plug-In . SVG Version: 6.00 Build 0)  -->
<svg version="1.1" id="Layer_1" xmlns="http://www.w3.org/2000/svg" xmlns:xlink="http://www.w3.org/1999/xlink" x="0px" y="0px"
	 viewBox="0 0 84 84" style="enable-background:new 0 0 84 84;" xml:space="preserve">
<style type="text/css">
	.st0{fill:#FFFFFF;}
</style>
<g>
	<path class="st0" d="M59.4,24.6c-0.8-0.8-2-0.8-2.8,0L42,39.2L27.4,24.6c-0.8-0.8-2-0.8-2.8,0s-0.8,2,0,2.8L39.2,42L24.6,56.6
		c-0.8,0.8-0.8,2,0,2.8C25,59.8,25.5,60,26,60s1-0.2,1.4-0.6L42,44.8l14.6,14.6C57,59.8,57.5,60,58,60s1-0.2,1.4-0.6
		c0.8-0.8,0.8-2,0-2.8L44.8,42l14.6-14.6C60.2,26.6,60.2,25.4,59.4,24.6z"/>
	<path class="st0" d="M42,0C18.8,0,0,18.8,0,42s18.8,42,42,42s42-18.8,42-42S65.2,0,42,0z M42,80C21,80,4,63,4,42S21,4,42,4
		s38,17,38,38S63,80,42,80z"/>
</g>
</svg>
