<?xml version="1.0" encoding="utf-8"?>
<!-- Generator: Adobe Illustrator 24.0.3, SVG Export Plug-In . SVG Version: 6.00 Build 0)  -->
<svg version="1.1" id="Layer_1" xmlns="http://www.w3.org/2000/svg" xmlns:xlink="http://www.w3.org/1999/xlink" x="0px" y="0px"
	 viewBox="0 0 450 450" style="enable-background:new 0 0 450 450;" xml:space="preserve">
<style type="text/css">
	.st0{fill:#FFFFFF;}
</style>
<title>Fichier 2locate</title>
<path class="st0" d="M225,0C100.7,0,0,100.7,0,225s100.7,225,225,225s225-100.7,225-225S349.3,0,225,0z M251,322.1
	c0,14.4-11.6,26-26,26c-14.4,0-26-11.6-26-26v-103c0-14.4,11.6-26,26-26c14.4,0,26,11.6,26,26V322.1z M225,164.8
	c-17.3,0-31.2-14-31.2-31.2s14-31.2,31.2-31.2s31.2,14,31.2,31.2S242.3,164.8,225,164.8z"/>
</svg>
